<svg width="222" height="77" viewBox="0 0 222 77" fill="none" xmlns="http://www.w3.org/2000/svg">
<g clip-path="url(#clip0_217_8)">
<path d="M78.455 10.7627H83.3073V35.4605H78.455V10.7627Z" fill="#2389DA"/>
<path d="M101.007 10.7627H105.546V35.4605H101.007V33.3785C99.6702 35.0963 97.7703 35.9549 95.3079 35.9542C92.9385 35.9542 90.9153 35.0544 89.2384 33.2548C87.5614 31.4552 86.7229 29.2492 86.7229 26.6366C86.7229 24.0255 87.5614 21.8194 89.2384 20.0184C90.9153 18.2174 92.9385 17.3176 95.3079 17.3191C97.7703 17.3191 99.6702 18.1776 101.007 19.8947V10.7627ZM92.6507 30.2202C93.5775 31.1496 94.7446 31.6144 96.1518 31.6144C97.559 31.6144 98.7202 31.1496 99.6355 30.2202C100.55 29.2915 101.007 28.098 101.007 26.6399C101.007 25.1817 100.55 23.9882 99.6355 23.0595C98.7202 22.1308 97.559 21.6664 96.1518 21.6664C94.7446 21.6664 93.5775 22.1308 92.6507 23.0595C91.7246 23.989 91.2615 25.1824 91.2615 26.6399C91.2615 28.0973 91.7246 29.2908 92.6507 30.2202Z" fill="#2389DA"/>
<path d="M113.532 28.5092C114.142 30.7204 115.795 31.8259 118.492 31.8259C120.228 31.8259 121.542 31.2379 122.434 30.0618L126.092 32.1785C124.356 34.6956 121.8 35.9542 118.422 35.9542C115.514 35.9542 113.18 35.0721 111.421 33.308C109.662 31.5438 108.782 29.3211 108.782 26.6399C108.782 23.9817 109.65 21.7648 111.385 19.9891C113.121 18.2134 115.349 17.3256 118.07 17.3256C120.651 17.3256 122.779 18.2192 124.454 20.0065C126.128 21.7937 126.967 24.0049 126.97 26.6399C126.966 27.267 126.907 27.8925 126.794 28.5092H113.532ZM113.461 24.981H122.434C122.175 23.7817 121.641 22.8881 120.832 22.3001C120.031 21.7144 119.062 21.405 118.07 21.418C116.851 21.418 115.842 21.7297 115.041 22.3532C114.24 22.9767 113.714 23.8526 113.461 24.981Z" fill="#2389DA"/>
<path d="M143.367 17.8191H147.911V35.4604H143.367V33.3784C142.006 35.0963 140.095 35.9548 137.632 35.9541C135.287 35.9541 133.276 35.0543 131.599 33.2547C129.922 31.4552 129.083 29.2491 129.083 26.6365C129.083 24.0254 129.922 21.8193 131.599 20.0183C133.276 18.2173 135.287 17.3175 137.632 17.319C140.096 17.319 142.008 18.1775 143.367 19.8946V17.8191ZM134.994 30.2201C135.908 31.1496 137.069 31.6143 138.476 31.6143C139.884 31.6143 141.051 31.1496 141.977 30.2201C142.904 29.2914 143.367 28.098 143.367 26.6398C143.367 25.1816 142.904 23.9882 141.977 23.0594C141.051 22.1307 139.884 21.6664 138.476 21.6664C137.069 21.6664 135.908 22.1307 134.994 23.0594C134.078 23.9889 133.621 25.1823 133.621 26.6398C133.621 28.0972 134.078 29.2907 134.994 30.2201Z" fill="#2389DA"/>
<path d="M152.022 35.4605V9.70483H156.566V35.4605H152.022Z" fill="#2389DA"/>
<path d="M90.1364 69.3706C86.4298 69.3706 83.3687 68.1356 80.9532 65.6655C78.5376 63.1955 77.3298 60.1489 77.3298 56.5259C77.3298 52.8805 78.5376 49.8285 80.9532 47.37C83.3687 44.9115 86.4298 43.6819 90.1364 43.6812C92.2949 43.664 94.4214 44.2047 96.3109 45.2511C98.1402 46.2423 99.6664 47.7135 100.726 49.5074L96.5392 51.9409C95.9371 50.8443 95.0336 49.9443 93.9361 49.3479C92.8095 48.7251 91.5429 48.4137 90.1364 48.4137C87.7433 48.4137 85.8138 49.1663 84.3482 50.6715C82.8826 52.1767 82.1498 54.1282 82.1498 56.5259C82.1498 58.902 82.8826 60.8426 84.3482 62.3478C85.8138 63.8529 87.7433 64.6055 90.1364 64.6055C91.4674 64.6244 92.7811 64.3025 93.9534 63.6703C95.0472 63.0907 95.9465 62.2009 96.5392 61.112L100.726 63.5488C99.6692 65.3377 98.1496 66.8068 96.3282 67.8007C94.4515 68.8481 92.3875 69.3714 90.1364 69.3706Z" fill="#2389DA"/>
<path d="M103.787 68.877V43.1213H108.331V68.877H103.787Z" fill="#2389DA"/>
<path d="M116.312 61.9257C116.922 64.1369 118.575 65.2424 121.273 65.2424C123.008 65.2424 124.321 64.6544 125.213 63.4783L128.872 65.595C127.135 68.1121 124.579 69.3707 121.202 69.3707C118.293 69.3707 115.959 68.4886 114.2 66.7245C112.442 64.9603 111.562 62.7376 111.562 60.0564C111.562 57.3982 112.43 55.1813 114.166 53.4056C115.901 51.6299 118.129 50.7421 120.85 50.7421C123.429 50.7421 125.557 51.6357 127.233 53.423C128.909 55.2103 129.748 57.4214 129.748 60.0564C129.744 60.6835 129.685 61.309 129.572 61.9257H116.312ZM116.242 58.3975H125.213C124.955 57.199 124.421 56.3053 123.612 55.7166C122.811 55.1312 121.842 54.8217 120.851 54.8345C119.63 54.8345 118.621 55.1462 117.821 55.7697C117.022 56.3932 116.496 57.2691 116.242 58.3975Z" fill="#2389DA"/>
<path d="M146.146 51.2356H150.69V68.8769H146.146V66.7949C144.786 68.5127 142.874 69.3713 140.412 69.3706C138.066 69.3706 136.055 68.4708 134.378 66.6712C132.701 64.8716 131.863 62.6656 131.863 60.053C131.863 57.4419 132.701 55.2358 134.378 53.4348C136.055 51.6338 138.066 50.734 140.412 50.7355C142.874 50.7355 144.786 51.594 146.146 53.3111V51.2356ZM137.773 63.6366C138.687 64.5668 139.848 65.0315 141.256 65.0308C142.664 65.03 143.832 64.5653 144.76 63.6366C145.686 62.7079 146.149 61.5144 146.149 60.0563C146.149 58.5981 145.686 57.4047 144.76 56.4759C143.833 55.5472 142.666 55.0829 141.259 55.0829C139.852 55.0829 138.691 55.5472 137.776 56.4759C136.861 57.4061 136.404 58.5995 136.405 60.0563C136.405 61.513 136.861 62.7064 137.773 63.6366Z" fill="#2389DA"/>
<path d="M164.582 50.7421C166.505 50.7421 168.094 51.3887 169.348 52.682C170.603 53.9752 171.23 55.7629 171.231 58.0449V68.877H166.687V58.6101C166.687 57.434 166.37 56.5343 165.737 55.9108C165.104 55.2873 164.26 54.9755 163.204 54.9755C162.031 54.9755 161.094 55.3401 160.391 56.0692C159.689 56.7983 159.338 57.8908 159.34 59.3468V68.8727H154.796V51.2357H159.34V53.2114C160.439 51.5652 162.186 50.7421 164.582 50.7421Z" fill="#2389DA"/>
<path d="M177.353 49.119C176.618 49.1072 175.918 48.8092 175.399 48.2881C174.88 47.767 174.584 47.0637 174.573 46.3274C174.571 45.9591 174.644 45.5943 174.786 45.2548C174.928 44.9153 175.137 44.6081 175.401 44.3517C175.649 44.0831 175.951 43.8691 176.286 43.7233C176.621 43.5774 176.983 43.5029 177.348 43.5044C177.72 43.4998 178.089 43.5728 178.431 43.7186C178.774 43.8645 179.082 44.0801 179.337 44.3517C179.6 44.6083 179.809 44.9156 179.951 45.255C180.093 45.5945 180.165 45.9593 180.164 46.3274C180.166 46.6922 180.093 47.0536 179.951 47.3894C179.809 47.7252 179.6 48.0284 179.337 48.2803C179.081 48.5485 178.773 48.7612 178.431 48.9055C178.09 49.0497 177.723 49.1224 177.353 49.119ZM175.101 68.877V51.2357H179.645V68.877H175.101Z" fill="#2389DA"/>
<path d="M193.572 50.7421C195.495 50.7421 197.085 51.3887 198.34 52.682C199.595 53.9752 200.222 55.7629 200.221 58.0449V68.877H195.684V58.6101C195.684 57.434 195.367 56.5343 194.734 55.9108C194.1 55.2873 193.256 54.9755 192.2 54.9755C191.027 54.9755 190.089 55.3401 189.387 56.0692C188.684 56.7983 188.332 57.8908 188.33 59.3468V68.8727H183.786V51.2357H188.33V53.2114C189.433 51.5652 191.18 50.7421 193.572 50.7421Z" fill="#2389DA"/>
<path d="M217.566 51.2357H222.002V68.0264C222.002 70.7547 221.105 72.8364 219.31 74.2714C217.516 75.7064 215.352 76.4239 212.819 76.4239C210.919 76.4239 209.248 76.0594 207.805 75.3303C206.393 74.6294 205.232 73.5077 204.481 72.1188L208.351 69.8969C209.241 71.5431 210.776 72.3662 212.957 72.3662C214.388 72.3662 215.514 71.9897 216.335 71.2368C217.157 70.4838 217.567 69.4137 217.566 68.0264V66.1245C216.23 67.9125 214.354 68.8065 211.94 68.8065C209.454 68.8065 207.372 67.9302 205.696 66.1777C204.019 64.4251 203.18 62.2914 203.18 59.7765C203.18 57.2833 204.024 55.1546 205.713 53.3905C207.401 51.6263 209.477 50.7443 211.94 50.7443C214.356 50.7443 216.231 51.6379 217.566 53.4252V51.2357ZM209.105 63.2526C210.032 64.1589 211.211 64.6117 212.641 64.611C214.072 64.6103 215.25 64.1575 216.177 63.2526C217.103 62.3463 217.566 61.1891 217.566 59.7808C217.566 58.3928 217.103 57.246 216.177 56.3404C215.251 55.4349 214.072 54.9821 212.641 54.9821C211.21 54.9821 210.031 55.4349 209.105 56.3404C208.179 57.246 207.715 58.3928 207.715 59.7808C207.715 61.1883 208.179 62.3456 209.105 63.2526Z" fill="#2389DA"/>
<path d="M56.3461 36.7906C55.5306 34.0943 54.2167 31.5757 52.4729 29.3663C54.4615 32.0061 55.9135 35.0119 56.7465 38.213C56.6242 37.7389 56.4933 37.2637 56.3461 36.7906Z" fill="#2389DA"/>
<path d="M42.3992 17.4004C43.3461 17.4116 44.2587 17.0451 44.9361 16.3816C45.6136 15.7181 46.0005 14.8119 46.0117 13.8623C46.0229 12.9128 45.6575 11.9976 44.9958 11.3183C44.3342 10.6389 43.4305 10.2509 42.4836 10.2397C40.4745 10.2017 38.9252 11.7695 38.9317 13.8352C38.9371 15.8402 40.4279 17.3743 42.3992 17.4004Z" fill="#2389DA"/>
<path d="M55.7185 21.9257C53.9647 20.0303 51.8236 19.9609 50.0081 21.7662L49.9833 21.7912C49.6789 22.0943 49.4379 22.4553 49.2743 22.853C49.1107 23.2506 49.0279 23.677 49.0306 24.1072C49.0333 24.5374 49.1216 24.9627 49.2901 25.3582C49.4587 25.7538 49.7043 26.1117 50.0125 26.4109C50.9554 27.3274 51.8264 28.3155 52.6177 29.3663C54.3627 31.5754 55.6777 34.094 56.4942 36.7906C56.6413 37.2637 56.7733 37.7389 56.8924 38.213C60.0148 50.6433 53.6055 63.3144 41.5671 68.1348C26.8054 74.0532 9.81722 64.3375 7.45324 48.5699C7.25328 47.2558 7.14483 45.9293 7.12866 44.6001C7.04752 37.0933 10.1299 30.7127 15.8359 25.2164C22.2278 19.0539 28.411 12.6743 34.6828 6.38706C36.244 4.82148 36.3522 2.54851 34.9349 1.08491C34.6127 0.747938 34.2268 0.478765 33.7996 0.29313C33.3725 0.107496 32.9127 0.00912508 32.4472 0.00377103C31.9817 -0.00158302 31.5198 0.0861868 31.0885 0.261948C30.6572 0.43771 30.2652 0.697935 29.9354 1.02741C22.362 8.63074 14.6804 16.131 7.37534 23.9839C2.74367 28.9605 0.649082 35.25 0.108125 42.0591C-1.28213 59.337 11.3167 74.0923 27.3972 76.617C44.2621 79.2664 60.9366 67.869 64.1163 51.0653C66.213 39.9728 63.4001 30.2256 55.7185 21.9257ZM32.73 69.989H32.5753C32.6835 69.989 32.7917 69.989 32.8998 69.989C32.849 69.9857 32.7917 69.989 32.7343 69.989H32.73ZM57.7038 45.3346C57.7038 45.455 57.694 45.5744 57.6897 45.6937C57.6897 45.5668 57.7005 45.4398 57.7038 45.3129V45.3346Z" fill="#2389DA"/>
<path d="M52.3745 29.2449C52.4059 29.2861 52.4383 29.3252 52.4697 29.3664C52.4373 29.3262 52.407 29.285 52.3745 29.2449Z" fill="#2389DA"/>
<path d="M50.2191 44.6294C50.2191 44.8464 50.2104 45.071 50.2018 45.2901C50.2115 45.071 50.218 44.8507 50.2191 44.6294Z" fill="#2389DA"/>
<path d="M44.38 31.3486C43.8078 30.8201 43.0539 30.5342 42.2762 30.5508C41.4985 30.5674 40.7574 30.8852 40.2081 31.4375L40.1887 31.457C38.4187 33.2461 38.4143 35.1871 40.1194 37.0218C43.3803 40.5327 44.0435 45.3943 41.8321 49.5942C39.7624 53.5228 35.1816 55.9389 30.961 55.326C26.1162 54.624 22.4658 51.2031 21.5733 46.4847C20.8614 42.721 21.9563 39.4813 24.6026 36.7809C27.8841 33.4349 31.2283 30.1519 34.527 26.8221L34.567 26.7798C36.5469 24.7358 36.0417 21.7424 33.5295 20.754C32.1565 20.2115 30.8247 20.4188 29.7677 21.4712C26.0124 25.2142 22.0947 28.8206 18.6088 32.8056C14.4629 37.548 13.2447 43.1127 14.847 48.9714C14.9191 49.2383 14.9974 49.5059 15.0818 49.7743C14.9974 49.5059 14.9191 49.2383 14.847 48.9714C15.2407 50.5621 15.8512 52.0907 16.6614 53.5141C16.4785 53.1788 16.3076 52.8316 16.141 52.479C16.3076 52.8316 16.4785 53.1788 16.6614 53.5141C17.1231 54.3269 17.6473 55.1024 18.2291 55.8337C17.6473 55.1024 17.1231 54.3269 16.6614 53.5141C18.2269 56.3892 20.4005 58.6036 23.1377 60.1236C22.6736 59.8491 22.2246 59.5518 21.7896 59.2372C22.2224 59.5518 22.6736 59.8491 23.1377 60.1236C25.8148 61.7107 28.8573 62.5728 31.9668 62.6253C35.0763 62.6778 38.1461 61.919 40.875 60.4233C43.6039 58.9275 45.8983 56.7462 47.5332 54.0933C49.1681 51.4403 50.0873 48.4068 50.2007 45.2902C50.2094 45.0732 50.218 44.8508 50.218 44.6294C50.2208 42.1301 49.703 39.6577 48.6977 37.3707C47.6924 35.0837 46.2217 33.0325 44.38 31.3486ZM19.4743 57.2431C20.0619 57.8425 20.6902 58.4004 21.3547 58.9128C20.6902 58.4004 20.0619 57.8425 19.4743 57.2431Z" fill="#2389DA"/>
</g>
<defs>
<clipPath id="clip0_217_8">
<rect width="222" height="77" fill="white"/>
</clipPath>
</defs>
</svg>
